# xmcd CD database file
#
# Track frame offsets:
#	150
#	30332
#	56337
#	91237
#	126942
#	166087
#	190912
#	217265
#	246000
#
# Disc length: 3789 seconds
#
# Revision: 4
# Processed by: cddbd v1.5.2PL0 Copyright (c) Steve Scherf et al.
# Submitted via: CDex 1.70beta2
#
DISCID=720ecb09
DTITLE=SOUL FLOWER UNION - ワタツミ・ヤマツミ
DYEAR=1994
DGENRE=Rock
TTITLE0=もののけと遊ぶ庭
TTITLE1=レプン・カムイ
TTITLE2=陽炎のくに、鉛のうた
TTITLE3=たこあげてまんねん
TTITLE4=戒厳令下
TTITLE5=向日葵の夢
TTITLE6=夕立とかくれんぼ
TTITLE7=アイヌ・プリ
TTITLE8=リベラリストに踏絵を
EXTD=YEAR: 1994
EXTT0=
EXTT1=
EXTT2=
EXTT3=
EXTT4=
EXTT5=
EXTT6=
EXTT7=
EXTT8=
PLAYORDER=
